<?xml version="1.0" encoding="UTF-8" standalone="no"?>
<!-- Created with Inkscape (http://www.inkscape.org/) -->

<svg
   width="63.461899mm"
   height="47.96714mm"
   viewBox="0 0 63.461899 47.96714"
   version="1.1"
   id="svg5"
   inkscape:version="1.2.1 (9c6d41e410, 2022-07-14)"
   sodipodi:docname="logo nurhamsah portfolio.svg"
   inkscape:export-filename="C:\Users\nurhamsah\Documents\NEW MUTAN.png"
   inkscape:export-xdpi="96"
   inkscape:export-ydpi="96"
   xml:space="preserve"
   xmlns:inkscape="http://www.inkscape.org/namespaces/inkscape"
   xmlns:sodipodi="http://sodipodi.sourceforge.net/DTD/sodipodi-0.dtd"
   xmlns="http://www.w3.org/2000/svg"
   xmlns:svg="http://www.w3.org/2000/svg"><sodipodi:namedview
     id="namedview7"
     pagecolor="#ffffff"
     bordercolor="#666666"
     borderopacity="1.0"
     inkscape:pageshadow="2"
     inkscape:pageopacity="0.0"
     inkscape:pagecheckerboard="0"
     inkscape:document-units="mm"
     showgrid="false"
     inkscape:snap-object-midpoints="true"
     inkscape:snap-global="false"
     inkscape:zoom="0.5"
     inkscape:cx="750"
     inkscape:cy="-36"
     inkscape:window-width="1366"
     inkscape:window-height="715"
     inkscape:window-x="-8"
     inkscape:window-y="-8"
     inkscape:window-maximized="1"
     inkscape:current-layer="layer1"
     showguides="false"
     inkscape:object-paths="true"
     inkscape:snap-smooth-nodes="true"
     inkscape:snap-bbox="true"
     inkscape:bbox-paths="true"
     inkscape:bbox-nodes="true"
     inkscape:snap-bbox-edge-midpoints="true"
     inkscape:snap-bbox-midpoints="true"
     showborder="false"
     inkscape:showpageshadow="2"
     inkscape:deskcolor="#d1d1d1" /><defs
     id="defs2" /><g
     inkscape:label="Layer 1"
     inkscape:groupmode="layer"
     id="layer1"
     transform="translate(-178.77217,76.215639)"><path
       id="rect1773"
       style="opacity:1;fill:#b71c1c;fill-opacity:1;stroke:none;stroke-width:0.264583;stroke-linecap:round;stroke-linejoin:round;paint-order:markers stroke fill"
       d="m 208.18793,-76.215602 c -2.84945,-3e-6 -5.15938,2.309925 -5.15938,5.159375 v 1.46658 9.81283 0.59428 a 1.1029218,1.1029218 0 0 1 -1.10329,1.10278 1.1029218,1.1029218 0 0 1 -0.80822,-0.35243 l -7.04298,-7.04299 a 1.1029218,1.1029218 0 0 1 -0.35295,-0.80873 v -3.36052 h -3.8163 -5.97328 c -2.84944,0 -5.15937,2.31019 -5.15937,5.15937 v 24.40782 6.66936 5.15937 h 5.15937 2.3151 2.31511 c 2.84918,0 5.15937,-2.30993 5.15937,-5.15937 v -8.61911 a 1.1029218,1.1029218 0 0 1 1.10329,-1.10278 1.1029218,1.1029218 0 0 1 0.82062,0.36639 l 0.003,0.0031 a 1.1029218,1.1029218 0 0 1 0.005,0.0052 l 7.01714,7.01663 0.004,0.0041 a 1.1029218,1.1029218 0 0 1 0.3545,0.80977 v 6.67608 h 9.78959 c 2.84918,0 5.15937,-2.30993 5.15937,-5.15937 v -4.46485 -5.69474 h 5.2e-4 a 1.1029218,1.1029218 0 0 1 -5.2e-4,-0.01705 1.1029218,1.1029218 0 0 1 1.10278,-1.10278 h 7.08535 a 1.1029218,1.1029218 0 0 1 0.0171,-5.1e-4 1.1029218,1.1029218 0 0 1 1.10277,1.10329 1.1029218,1.1029218 0 0 1 -5.2e-4,0.01395 v 3.5972 6.56549 5.15937 h 5.15938 1.30948 0.48162 2.5275 0.31161 a 5.1593747,5.1593747 0 0 0 5.15937,-5.15937 v -2.68769 -3.88245 -3.9641 -7.84707 -2.68769 c 0,-2.84944 -2.31019,-5.15938 -5.15937,-5.15938 h -0.31161 -4.73925 -4.73873 -4.65398 a 5.1593747,5.1593747 0 0 0 -2.95175,0.95033 1.1029218,1.1029218 0 0 1 -0.65888,0.21911 1.1029218,1.1029218 0 0 1 -1.10329,-1.10277 1.1029218,1.1029218 0 0 1 0.002,-0.03618 1.1029218,1.1029218 0 0 0 -5.2e-4,0.0015 l 0.0594,-2.51405 v -7.47138 -1.46658 -5.159375 h -5.15937 -4.53513 z m -14.00948,9.038205 a 1.1029218,1.1029218 0 0 0 -0.005,0.0036 1.1029218,1.1029218 0 0 1 0.005,-0.0036 z m -0.24392,0.24288 a 1.1029218,1.1029218 0 0 0 -0.004,0.0057 1.1029218,1.1029218 0 0 1 0.004,-0.0057 z m 1.98593,0.76378 a 1.1029218,1.1029218 0 0 1 -0.004,0.03462 1.1029218,1.1029218 0 0 0 0.004,-0.03462 z m -0.0233,0.14056 a 1.1029218,1.1029218 0 0 1 -0.008,0.0279 1.1029218,1.1029218 0 0 0 0.008,-0.0279 z m -0.0377,0.12506 a 1.1029218,1.1029218 0 0 1 -0.006,0.01757 1.1029218,1.1029218 0 0 0 0.006,-0.01757 z m -0.0506,0.11627 a 1.1029218,1.1029218 0 0 1 -0.0181,0.03411 1.1029218,1.1029218 0 0 0 0.0181,-0.03411 z m -0.0744,0.12764 a 1.1029218,1.1029218 0 0 1 -0.0119,0.01654 1.1029218,1.1029218 0 0 0 0.0119,-0.01654 z m -0.0739,0.09508 a 1.1029218,1.1029218 0 0 1 -0.0186,0.02171 1.1029218,1.1029218 0 0 0 0.0186,-0.02171 z m -0.0971,0.10026 a 1.1029218,1.1029218 0 0 1 -0.0217,0.0186 1.1029218,1.1029218 0 0 0 0.0217,-0.0186 z m -0.0987,0.07854 a 1.1029218,1.1029218 0 0 1 -0.0191,0.01447 1.1029218,1.1029218 0 0 0 0.0191,-0.01447 z m -0.10645,0.0677 a 1.1029218,1.1029218 0 0 1 -0.0403,0.02119 1.1029218,1.1029218 0 0 0 0.0403,-0.02119 z m -0.13746,0.0646 a 1.1029218,1.1029218 0 0 1 -0.0232,0.0083 1.1029218,1.1029218 0 0 0 0.0232,-0.0083 z m -0.10955,0.03514 a 1.1029218,1.1029218 0 0 1 -0.0341,0.0093 1.1029218,1.1029218 0 0 0 0.0341,-0.0093 z m -0.13229,0.02738 a 1.1029218,1.1029218 0 0 1 -0.0506,0.0057 1.1029218,1.1029218 0 0 0 0.0506,-0.0057 z m -0.13023,0.01034 a 1.1029218,1.1029218 0 0 1 -0.0248,0.001 1.1029218,1.1029218 0 0 1 -0.004,0 1.1029218,1.1029218 0 0 0 0.004,5.2e-4 1.1029218,1.1029218 0 0 0 0.0248,-0.0015 z m 6.73964,4.95009 a 1.1029218,1.1029218 0 0 0 -0.008,0.0026 1.1029218,1.1029218 0 0 1 0.008,-0.0026 z m -0.30592,0.15451 a 1.1029218,1.1029218 0 0 0 -0.009,0.0067 1.1029218,1.1029218 0 0 1 0.009,-0.0067 z m 16.7535,0.01137 a 1.1029218,1.1029218 0 0 0 -0.0382,0.08423 1.1029218,1.1029218 0 0 1 0.0382,-0.08423 z m -16.99845,0.23099 a 1.1029218,1.1029218 0 0 0 -0.007,0.0088 1.1029218,1.1029218 0 0 1 0.007,-0.0088 z m -0.15916,0.30851 a 1.1029218,1.1029218 0 0 0 -0.002,0.0057 1.1029218,1.1029218 0 0 1 0.002,-0.0057 z m 18.84794,15.04818 a 1.1029218,1.1029218 0 0 1 0.005,0.0036 1.1029218,1.1029218 0 0 0 -0.005,-0.0036 z m 0.24391,0.24287 a 1.1029218,1.1029218 0 0 1 0.005,0.0062 1.1029218,1.1029218 0 0 0 -0.005,-0.0062 z m 0.21291,0.65113 a 1.1029218,1.1029218 0 0 1 -0.001,0.0248 1.1029218,1.1029218 0 0 0 0.002,-0.0248 1.1029218,1.1029218 0 0 0 -5.2e-4,0 z m -0.006,0.10438 a 1.1029218,1.1029218 0 0 1 -0.006,0.05065 1.1029218,1.1029218 0 0 0 0.006,-0.05065 z m -0.0238,0.14883 a 1.1029218,1.1029218 0 0 1 -0.009,0.03411 1.1029218,1.1029218 0 0 0 0.009,-0.03411 z m -0.0362,0.12041 a 1.1029218,1.1029218 0 0 1 -0.008,0.02325 1.1029218,1.1029218 0 0 0 0.008,-0.02325 z m -0.0517,0.11989 a 1.1029218,1.1029218 0 0 1 -0.0212,0.04082 1.1029218,1.1029218 0 0 0 0.0212,-0.04082 z m -0.0744,0.12816 a 1.1029218,1.1029218 0 0 1 -0.0145,0.01912 1.1029218,1.1029218 0 0 0 0.0145,-0.01912 z m 5.29787,0.02377 a 1.1029218,1.1029218 0 0 0 0.004,0.0046 1.1029218,1.1029218 0 0 1 -0.004,-0.0046 z m -5.37228,0.07234 a 1.1029218,1.1029218 0 0 1 -0.0186,0.02171 1.1029218,1.1029218 0 0 0 0.0186,-0.02171 z m -0.0971,0.10026 a 1.1029218,1.1029218 0 0 1 -0.0217,0.0186 1.1029218,1.1029218 0 0 0 0.0217,-0.0186 z m 5.71231,0.07131 a 1.1029218,1.1029218 0 0 0 0.006,0.0041 1.1029218,1.1029218 0 0 1 -0.006,-0.0041 z m -5.81257,0.0093 a 1.1029218,1.1029218 0 0 1 -0.0165,0.01189 1.1029218,1.1029218 0 0 0 0.0165,-0.01189 z m -0.11007,0.06821 a 1.1029218,1.1029218 0 0 1 -0.0341,0.01809 1.1029218,1.1029218 0 0 0 0.0341,-0.01809 z m 6.99389,0.05168 a 1.1029218,1.1029218 0 0 1 -0.004,0.0021 1.1029218,1.1029218 0 0 0 0.004,-0.0021 z m -7.1267,0.01085 a 1.1029218,1.1029218 0 0 1 -0.0176,0.0062 1.1029218,1.1029218 0 0 0 0.0176,-0.0062 z m -0.11472,0.03618 a 1.1029218,1.1029218 0 0 1 -0.0279,0.0078 1.1029218,1.1029218 0 0 0 0.0279,-0.0078 z m -0.13384,0.02738 a 1.1029218,1.1029218 0 0 1 -0.0346,0.0036 1.1029218,1.1029218 0 0 0 0.0346,-0.0036 z m -23.35465,0.80306 a 1.1029218,1.1029218 0 0 1 -0.002,0.0057 1.1029218,1.1029218 0 0 0 0.002,-0.0057 z m -0.15451,0.3054 a 1.1029218,1.1029218 0 0 1 -0.007,0.0088 1.1029218,1.1029218 0 0 0 0.007,-0.0088 z m -1.78852,0.001 a 1.1029218,1.1029218 0 0 0 0.004,0.0057 1.1029218,1.1029218 0 0 1 -0.004,-0.0057 z m 1.54616,0.24339 a 1.1029218,1.1029218 0 0 1 -0.009,0.0067 1.1029218,1.1029218 0 0 0 0.009,-0.0067 z m -1.30276,0.0015 a 1.1029218,1.1029218 0 0 0 0.005,0.0036 1.1029218,1.1029218 0 0 1 -0.005,-0.0036 z m 0.9958,0.1571 a 1.1029218,1.1029218 0 0 1 -0.008,0.0026 1.1029218,1.1029218 0 0 0 0.008,-0.0026 z m -0.68833,5.2e-4 a 1.1029218,1.1029218 0 0 0 0.004,0.0016 1.1029218,1.1029218 0 0 1 -0.004,-0.0016 z m 7.10861,5.00486 a 1.1029218,1.1029218 0 0 0 -0.0114,0.0041 1.1029218,1.1029218 0 0 1 0.0114,-0.0041 z m -0.30592,0.154 a 1.1029218,1.1029218 0 0 0 -0.0129,0.0098 1.1029218,1.1029218 0 0 1 0.0129,-0.0098 z m -0.24495,0.24184 a 1.1029218,1.1029218 0 0 0 -0.009,0.0124 1.1029218,1.1029218 0 0 1 0.009,-0.0124 z m -0.15968,0.30748 a 1.1029218,1.1029218 0 0 0 -0.003,0.01033 1.1029218,1.1029218 0 0 1 0.003,-0.01033 z m -0.0563,0.34261 a 1.1029218,1.1029218 0 0 0 -5.1e-4,0.0041 1.1029218,1.1029218 0 0 0 5.1e-4,0.0041 1.1029218,1.1029218 0 0 1 0,-0.0041 1.1029218,1.1029218 0 0 1 0,-0.0041 z m 2.19884,0.11782 a 1.1029218,1.1029218 0 0 1 -0.004,0.03411 1.1029218,1.1029218 0 0 0 0.004,-0.03411 z m -0.0243,0.14573 a 1.1029218,1.1029218 0 0 1 -0.005,0.01654 1.1029218,1.1029218 0 0 0 0.005,-0.01654 z m -2.12235,0.07441 a 1.1029218,1.1029218 0 0 0 0.005,0.01551 1.1029218,1.1029218 0 0 1 -0.005,-0.01551 z m 2.08669,0.04186 a 1.1029218,1.1029218 0 0 1 -0.007,0.02067 1.1029218,1.1029218 0 0 0 0.007,-0.02067 z m -0.0532,0.12351 a 1.1029218,1.1029218 0 0 1 -0.0155,0.02894 1.1029218,1.1029218 0 0 0 0.0155,-0.02894 z m -0.0718,0.12247 a 1.1029218,1.1029218 0 0 1 -0.0145,0.01912 1.1029218,1.1029218 0 0 0 0.0145,-0.01912 z m -1.80609,0.02171 a 1.1029218,1.1029218 0 0 0 0.007,0.0093 1.1029218,1.1029218 0 0 1 -0.007,-0.0093 z m 1.73168,0.07441 a 1.1029218,1.1029218 0 0 1 -0.0181,0.02119 1.1029218,1.1029218 0 0 0 0.0181,-0.02119 z m -0.10077,0.10335 a 1.1029218,1.1029218 0 0 1 -0.0134,0.01137 1.1029218,1.1029218 0 0 0 0.0134,-0.01137 z m -1.38855,0.06718 a 1.1029218,1.1029218 0 0 0 0.009,0.0067 1.1029218,1.1029218 0 0 1 -0.009,-0.0067 z m 1.29088,0.01085 a 1.1029218,1.1029218 0 0 1 -0.0155,0.01137 1.1029218,1.1029218 0 0 0 0.0155,-0.01137 z m -0.11472,0.0708 a 1.1029218,1.1029218 0 0 1 -0.0222,0.01189 1.1029218,1.1029218 0 0 0 0.0222,-0.01189 z m -0.12764,0.05943 a 1.1029218,1.1029218 0 0 1 -0.0171,0.0062 1.1029218,1.1029218 0 0 0 0.0171,-0.0062 z m -0.74311,0.01705 a 1.1029218,1.1029218 0 0 0 0.0114,0.0041 1.1029218,1.1029218 0 0 1 -0.0114,-0.0041 z m 0.6289,0.01912 a 1.1029218,1.1029218 0 0 1 -0.0274,0.0072 1.1029218,1.1029218 0 0 0 0.0274,-0.0072 z m -0.14056,0.02791 a 1.1029218,1.1029218 0 0 1 -0.0191,0.0021 1.1029218,1.1029218 0 0 0 0.0191,-0.0021 z"
       inkscape:export-filename="..\..\Users\nurhamsah\Documents\rect1773.svg"
       inkscape:export-xdpi="33.889866"
       inkscape:export-ydpi="33.889866" /></g></svg>
